<svg width="25" height="24" viewBox="0 0 25 24" fill="none" xmlns="http://www.w3.org/2000/svg">
<path d="M18.9993 12.7262C19.033 16.3512 22.1794 17.5575 22.2143 17.5729C22.1877 17.658 21.7115 19.2921 20.5566 20.9799C19.5582 22.4392 18.522 23.8931 16.8896 23.9232C15.2857 23.9527 14.7699 22.972 12.9362 22.972C11.103 22.972 10.5299 23.8931 9.01164 23.9527C7.43601 24.0123 6.23619 22.3747 5.22949 20.9209C3.17241 17.9469 1.60038 12.5171 3.71122 8.85185C4.75984 7.03169 6.63381 5.87909 8.66783 5.84953C10.2151 5.82002 11.6754 6.89045 12.6213 6.89045C13.5665 6.89045 15.3412 5.60316 17.2069 5.79222C17.9879 5.82472 20.1803 6.10771 21.5881 8.16833C21.4746 8.23865 18.9721 9.6955 18.9993 12.7262M15.9849 3.82466C16.8214 2.8121 17.3844 1.40252 17.2308 0C16.0251 0.048461 14.567 0.803489 13.7022 1.81549C12.9271 2.71167 12.2483 4.14606 12.4314 5.52082C13.7754 5.6248 15.1483 4.83787 15.9849 3.82467" fill="black"/>
</svg>
