<svg width="20" height="20" viewBox="0 0 20 20" fill="none" xmlns="http://www.w3.org/2000/svg">
<path d="M8.5563 17.5C8.70259 17.7533 8.91299 17.9637 9.16634 18.11C9.4197 18.2563 9.70709 18.3333 9.99964 18.3333C10.2922 18.3333 10.5796 18.2563 10.8329 18.11C11.0863 17.9637 11.2967 17.7533 11.443 17.5" stroke="white" stroke-width="1.5" stroke-linecap="round" stroke-linejoin="round"/>
<path d="M2.71855 12.7716C2.60969 12.8909 2.53784 13.0393 2.51176 13.1987C2.48568 13.3581 2.50648 13.5217 2.57164 13.6695C2.63679 13.8173 2.74349 13.9429 2.87876 14.0312C3.01403 14.1195 3.17203 14.1665 3.33355 14.1666H16.6669C16.8284 14.1667 16.9864 14.1198 17.1218 14.0317C17.2571 13.9436 17.364 13.8181 17.4293 13.6704C17.4946 13.5227 17.5156 13.3592 17.4897 13.1998C17.4639 13.0404 17.3922 12.8919 17.2835 12.7725C16.1752 11.63 15.0002 10.4158 15.0002 6.66663C15.0002 5.34054 14.4734 4.06877 13.5357 3.13109C12.5981 2.19341 11.3263 1.66663 10.0002 1.66663C8.67413 1.66663 7.40236 2.19341 6.46468 3.13109C5.527 4.06877 5.00022 5.34054 5.00022 6.66663C5.00022 10.4158 3.82438 11.63 2.71855 12.7716Z" stroke="white" stroke-width="1.5" stroke-linecap="round" stroke-linejoin="round"/>
</svg>
