<svg width="24" height="24" viewBox="0 0 24 24" fill="none" xmlns="http://www.w3.org/2000/svg">
<path fill-rule="evenodd" clip-rule="evenodd" d="M10.2809 0H13.7191C15.5085 0 16.9116 2.98023e-08 18.0324 0.106045C19.1743 0.215439 20.1098 0.440925 20.9347 0.945477C21.7987 1.47484 22.5251 2.20125 23.0545 3.06527C23.5591 3.88907 23.7846 4.82562 23.894 5.96756C24 7.08829 24 8.49144 24 10.2819V11.473C24 12.7466 24 13.7457 23.9442 14.5528C23.8884 15.3732 23.7734 16.0564 23.5111 16.6882C23.1885 17.4669 22.7157 18.1746 22.1196 18.7706C21.5236 19.3666 20.816 19.8394 20.0372 20.162C19.1386 20.5348 18.1161 20.6174 16.714 20.642C16.368 20.6408 16.022 20.6542 15.677 20.6822C15.456 20.7067 15.37 20.7425 15.3198 20.7715C15.2673 20.8027 15.1948 20.8585 15.0698 21.0305C14.9347 21.2158 14.7818 21.4725 14.5384 21.8833L13.9334 22.9058C13.0705 24.3647 10.9306 24.3647 10.0666 22.9058L9.46158 21.8833C9.29618 21.5919 9.11891 21.3074 8.93023 21.0305C8.80521 20.8585 8.73265 20.8027 8.68019 20.7715C8.62995 20.7425 8.544 20.7067 8.32298 20.6822C8.08633 20.6565 7.776 20.6487 7.28484 20.6409C5.88391 20.6174 4.8614 20.5348 3.96279 20.162C3.18401 19.8394 2.4764 19.3666 1.88035 18.7706C1.2843 18.1746 0.811496 17.4669 0.48893 16.6882C0.226605 16.0564 0.111628 15.3732 0.0546977 14.5528C2.6077e-08 13.7457 0 12.7466 0 11.4719V10.2819C0 8.49144 3.72529e-08 7.08941 0.106047 5.96756C0.215442 4.82562 0.44093 3.88907 0.945488 3.06527C1.47486 2.20125 2.20128 1.47484 3.0653 0.945477C3.88912 0.440925 4.82567 0.215439 5.96763 0.106045C7.08837 2.98023e-08 8.49154 0 10.282 0M6.12726 1.77375C5.10698 1.87086 4.45842 2.05616 3.94047 2.37318C3.30163 2.76452 2.76455 3.30159 2.37321 3.94042C2.05619 4.45837 1.87088 5.10692 1.77377 6.1283C1.67553 7.15973 1.67442 8.48362 1.67442 10.3266V11.4428C1.67442 12.7545 1.67442 13.6966 1.72577 14.44C1.776 15.1756 1.872 15.6556 2.03609 16.0486C2.5176 17.2109 3.44113 18.1345 4.60353 18.616C5.17842 18.8549 5.91293 18.9442 7.31498 18.9687H7.34958C7.79386 18.9765 8.18344 18.9832 8.50716 19.0189C8.85433 19.058 9.19479 19.135 9.52186 19.3248C9.84558 19.5146 10.08 19.7657 10.2832 20.0448C10.4718 20.3038 10.6649 20.6308 10.8837 21.0003L11.5077 22.0541C11.5599 22.1376 11.6325 22.2064 11.7186 22.2542C11.8047 22.3019 11.9015 22.327 12 22.327C12.0985 22.327 12.1953 22.3019 12.2814 22.2542C12.3675 22.2064 12.4401 22.1376 12.4923 22.0541L13.1163 21.0003C13.3351 20.6308 13.5293 20.3038 13.7168 20.0448C13.92 19.7657 14.1544 19.5134 14.4781 19.3248C14.8052 19.135 15.1457 19.0569 15.4928 19.0189C15.8166 18.9832 16.2061 18.9765 16.6504 18.9687H16.6861C18.0871 18.9442 18.8216 18.8549 19.3965 18.616C20.5589 18.1345 21.4824 17.2109 21.9639 16.0486C22.128 15.6556 22.224 15.1756 22.2742 14.44C22.3256 13.6966 22.3256 12.7545 22.3256 11.4428V10.3266C22.3256 8.48362 22.3256 7.15973 22.2262 6.12718C22.1291 5.10692 21.9438 4.45837 21.6268 3.94042C21.2356 3.30212 20.699 2.76546 20.0607 2.3743C19.5427 2.05728 18.8941 1.87198 17.8727 1.77486C16.8413 1.67663 15.5174 1.67552 13.6744 1.67552H10.3256C8.4826 1.67552 7.1587 1.67552 6.12614 1.77486M6.69767 8.65106C6.69767 8.42902 6.78588 8.21608 6.94289 8.05907C7.09989 7.90207 7.31284 7.81386 7.53488 7.81386H16.4651C16.6872 7.81386 16.9001 7.90207 17.0571 8.05907C17.2141 8.21608 17.3023 8.42902 17.3023 8.65106C17.3023 8.8731 17.2141 9.08605 17.0571 9.24305C16.9001 9.40006 16.6872 9.48826 16.4651 9.48826H7.53488C7.31284 9.48826 7.09989 9.40006 6.94289 9.24305C6.78588 9.08605 6.69767 8.8731 6.69767 8.65106ZM6.69767 12.558C6.69767 12.336 6.78588 12.123 6.94289 11.966C7.09989 11.809 7.31284 11.7208 7.53488 11.7208H13.6744C13.8965 11.7208 14.1094 11.809 14.2664 11.966C14.4234 12.123 14.5116 12.336 14.5116 12.558C14.5116 12.78 14.4234 12.993 14.2664 13.15C14.1094 13.307 13.8965 13.3952 13.6744 13.3952H7.53488C7.31284 13.3952 7.09989 13.307 6.94289 13.15C6.78588 12.993 6.69767 12.78 6.69767 12.558Z" fill="#F1EAEF"/>
</svg>
