<svg width="16" height="14" viewBox="0 0 16 14" fill="none" xmlns="http://www.w3.org/2000/svg">
<path fill-rule="evenodd" clip-rule="evenodd" d="M12.1971 1.16111C13.3286 1.16111 14.2459 2.07838 14.2459 3.20989V8.6733C14.2459 9.80481 13.3286 10.7221 12.1971 10.7221H5.96536L3.66048 12.7709V10.7221H3.31902C2.18751 10.7221 1.27024 9.80481 1.27024 8.6733V3.20989C1.27024 2.07838 2.18751 1.16111 3.31902 1.16111H12.1971ZM12.1971 0.136719H3.31902C1.62176 0.136719 0.24585 1.51262 0.24585 3.20989V8.6733C0.245047 10.1081 1.23718 11.3525 2.63609 11.6714V12.7709C2.63556 13.1751 2.87278 13.5418 3.24167 13.7071C3.61055 13.8723 4.04213 13.8052 4.34341 13.5357L6.35805 11.7465H12.1971C13.8943 11.7465 15.2702 10.3706 15.2702 8.6733V3.20989C15.2702 1.51262 13.8943 0.136719 12.1971 0.136719Z" fill="#FF63BB"/>
<circle cx="7.75804" cy="5.94164" r="0.512195" fill="#FF63BB"/>
<circle cx="11.1727" cy="5.94164" r="0.512195" fill="#FF63BB"/>
<circle cx="4.38439" cy="5.94164" r="0.512195" fill="#FF63BB"/>
</svg>
