<svg width="20" height="20" viewBox="0 0 20 20" fill="none" xmlns="http://www.w3.org/2000/svg">
<path d="M5 6.5915V13.3332C5 14.6593 5.52678 15.931 6.46447 16.8687C7.40215 17.8064 8.67392 18.3332 10 18.3332C11.3261 18.3332 12.5979 17.8064 13.5355 16.8687C14.4732 15.931 15 14.6593 15 13.3332V4.99984C15 4.11578 14.6488 3.26794 14.0237 2.64281C13.3986 2.01769 12.5507 1.6665 11.6667 1.6665C10.7826 1.6665 9.93477 2.01769 9.30964 2.64281C8.68452 3.26794 8.33333 4.11578 8.33333 4.99984V12.6515C8.33333 12.8704 8.37644 13.0871 8.4602 13.2893C8.54396 13.4915 8.66672 13.6753 8.82149 13.83C8.97625 13.9848 9.15999 14.1075 9.36219 14.1913C9.5644 14.2751 9.78113 14.3182 10 14.3182C10.442 14.3182 10.866 14.1426 11.1785 13.83C11.4911 13.5175 11.6667 13.0935 11.6667 12.6515V6.6665" stroke="white" stroke-width="1.66667" stroke-linecap="round" stroke-linejoin="round"/>
</svg>
