<svg width="25" height="24" viewBox="0 0 25 24" fill="none" xmlns="http://www.w3.org/2000/svg">
<g clip-path="url(#clip0_296_1061)">
<path d="M24.4874 12.2245C24.4874 11.2412 24.4057 10.5237 24.229 9.7796H12.7391V14.2176H19.4834C19.3475 15.3205 18.6132 16.9814 16.9815 18.0975L16.9586 18.2461L20.5915 20.9963L20.8432 21.0209C23.1548 18.9347 24.4874 15.8653 24.4874 12.2245Z" fill="#4285F4"/>
<path d="M12.7391 23.9176C16.0432 23.9176 18.8171 22.8545 20.8432 21.0209L16.9815 18.0976C15.9481 18.8018 14.5611 19.2934 12.7391 19.2934C9.50286 19.2934 6.75617 17.2074 5.77705 14.324L5.63353 14.3359L1.85598 17.1927L1.80658 17.3269C3.819 21.2334 7.95267 23.9176 12.7391 23.9176Z" fill="#34A853"/>
<path d="M5.77714 14.324C5.51879 13.5799 5.36928 12.7826 5.36928 11.9588C5.36928 11.1349 5.51879 10.3377 5.76355 9.5936L5.75671 9.43513L1.93182 6.53241L1.80668 6.59058C0.977262 8.21168 0.501343 10.0321 0.501343 11.9588C0.501343 13.8855 0.977262 15.7058 1.80668 17.3269L5.77714 14.324Z" fill="#FBBC05"/>
<path d="M12.739 4.62403C15.037 4.62403 16.5871 5.59402 17.471 6.40461L20.9247 3.10928C18.8036 1.1826 16.0432 0 12.739 0C7.95266 0 3.819 2.68406 1.80658 6.59056L5.76345 9.59359C6.75616 6.7102 9.50285 4.62403 12.739 4.62403Z" fill="#EB4335"/>
</g>
<defs>
<clipPath id="clip0_296_1061">
<rect width="24" height="24" fill="white" transform="translate(0.5)"/>
</clipPath>
</defs>
</svg>
