<svg width="10" height="10" viewBox="0 0 10 10" fill="none" xmlns="http://www.w3.org/2000/svg">
<path d="M2.90722 1.28063C3.27599 1.2178 3.65417 1.23853 4.01387 1.34129C4.37357 1.44405 4.70562 1.62623 4.98555 1.87438L5.00097 1.88813L5.01513 1.87563C5.2823 1.64118 5.59639 1.46638 5.93646 1.36292C6.27652 1.25946 6.63474 1.2297 6.98722 1.27563L7.08972 1.29063C7.53401 1.36735 7.94929 1.56278 8.29157 1.85625C8.63386 2.14971 8.89042 2.53028 9.03407 2.95765C9.17772 3.38502 9.20312 3.84328 9.10759 4.28391C9.01205 4.72454 8.79914 5.13114 8.49138 5.46063L8.41638 5.53772L8.39638 5.5548L5.29222 8.62938C5.22058 8.70028 5.12568 8.74282 5.02508 8.7491C4.92449 8.75538 4.82503 8.72499 4.74513 8.66355L4.70597 8.62938L1.58388 5.53688C1.25314 5.21507 1.01792 4.808 0.904282 4.36075C0.79064 3.91349 0.803007 3.44351 0.940015 3.00285C1.07702 2.56219 1.33332 2.16805 1.68053 1.86408C2.02774 1.56011 2.45231 1.35818 2.90722 1.28063Z" fill="#F7F4F7"/>
</svg>
