<svg width="11" height="11" viewBox="0 0 11 11" fill="none" xmlns="http://www.w3.org/2000/svg">
<path fill-rule="evenodd" clip-rule="evenodd" d="M10.9258 4.79668C10.9258 4.06081 10.3292 3.46427 9.59336 3.46427H7.72798V1.59889C7.72798 0.799446 7.26963 0 6.39557 0C5.52151 0 5.06316 0.799446 5.06316 1.59889V2.33438L4.10116 3.29638L2.87001 3.69611C2.747 3.39668 2.45557 3.20099 2.13186 3.20045H0.799446C0.357924 3.20045 0 3.55837 0 3.9999V9.8625C0 10.304 0.357924 10.662 0.799446 10.662H2.13186C2.57338 10.662 2.9313 10.304 2.9313 9.8625V9.75858L4.08784 10.5287C4.21896 10.6157 4.37284 10.662 4.5302 10.662H9.59336C10.3292 10.662 10.9258 10.0654 10.9258 9.32954V9.06306C10.783 8.81571 10.783 8.51096 10.9258 8.26361V7.46417C10.783 7.21682 10.783 6.91207 10.9258 6.66472V5.86527C10.783 5.61792 10.783 5.31318 10.9258 5.06583V4.79668ZM2.13186 9.85984H0.799446V3.99723H2.13186V9.85984ZM10.1263 5.06316H9.7266C9.50584 5.06316 9.32688 5.24212 9.32688 5.46288C9.32688 5.68365 9.50584 5.86261 9.7266 5.86261H10.1263V6.66205H9.7266C9.50584 6.66205 9.32688 6.84102 9.32688 7.06178C9.32688 7.28254 9.50584 7.4615 9.7266 7.4615H10.1263V8.26095H9.7266C9.50584 8.26095 9.32688 8.43991 9.32688 8.66067C9.32688 8.88143 9.50584 9.06039 9.7266 9.06039H10.1263V9.32687C10.1263 9.62122 9.88771 9.85984 9.59336 9.85984H4.5302L2.9313 8.79391V4.51421L4.5302 3.99723L5.86261 2.66482V1.59889C5.86261 1.59889 5.86261 0.799446 6.39557 0.799446C6.92854 0.799446 6.92854 1.59889 6.92854 1.59889V4.26371H9.59336C9.88771 4.26371 10.1263 4.50233 10.1263 4.79668V5.06316Z" fill="#FF63BB"/>
</svg>
