<svg width="22" height="32" viewBox="0 0 22 32" fill="none" xmlns="http://www.w3.org/2000/svg">
<path d="M8.79554 25.0235V26.6249C8.79554 26.908 8.68335 27.1795 8.48366 27.3797C8.28397 27.5799 8.01313 27.6924 7.73072 27.6924H6.04298C5.47323 27.6924 4.92681 27.9193 4.52393 28.3232C4.12105 28.7272 3.89471 29.275 3.89471 29.8462C3.89471 30.4174 4.12105 30.9653 4.52393 31.3692C4.92681 31.7731 5.47323 32 6.04298 32H15.7701C16.3399 32 16.8863 31.7731 17.2892 31.3692C17.692 30.9653 17.9184 30.4174 17.9184 29.8462C17.9184 29.275 17.692 28.7272 17.2892 28.3232C16.8863 27.9193 16.3399 27.6924 15.7701 27.6924H14.2368C13.9544 27.6924 13.6835 27.5799 13.4838 27.3797C13.2841 27.1795 13.1719 26.908 13.1719 26.6249V25.0235C18.2032 24.0574 21.9993 19.8192 21.9993 14.743V9.90695C22.0126 9.41832 21.8366 8.94351 21.5081 8.58227C21.1797 8.22103 20.7243 8.00145 20.2378 7.96967C19.7513 7.93789 19.2714 8.09637 18.899 8.41183C18.5265 8.72729 18.2905 9.17518 18.2405 9.66141H17.0639V5.59403C17.0625 4.11545 16.4778 2.69744 15.4375 1.64943C14.3972 0.601424 12.9856 0.00849714 11.5108 4.07208e-05H10.4993C9.76448 -0.00276863 9.03638 0.139812 8.35666 0.419613C7.67695 0.699413 7.05899 1.11093 6.53819 1.63059C6.01739 2.15025 5.60399 2.76784 5.32167 3.44796C5.03936 4.12808 4.89368 4.85736 4.89298 5.59403V9.60804H3.727C3.62539 9.16597 3.36896 8.77512 3.00431 8.50652C2.63967 8.23791 2.191 8.10938 1.73985 8.14427C1.2887 8.17916 0.86501 8.37516 0.545769 8.69666C0.226527 9.01816 0.0329231 9.44382 0.000139144 9.89628V14.7323C-0.0264813 19.8139 3.7696 24.0574 8.79554 25.0235ZM14.2368 28.76H15.7701C16.061 28.76 16.3399 28.8758 16.5456 29.082C16.7513 29.2882 16.8669 29.5679 16.8669 29.8596C16.8669 30.1512 16.7513 30.4309 16.5456 30.6371C16.3399 30.8433 16.061 30.9591 15.7701 30.9591H6.04298C5.75563 30.9591 5.48005 30.8447 5.27687 30.641C5.07368 30.4373 4.95953 30.161 4.95953 29.8729C4.95953 29.5848 5.07368 29.3085 5.27687 29.1048C5.48005 28.9011 5.75563 28.7867 6.04298 28.7867H7.72007C8.28489 28.7867 8.82657 28.5617 9.22596 28.1613C9.62534 27.7609 9.84971 27.2178 9.84971 26.6516V25.1783C10.2213 25.215 10.5944 25.2328 10.9678 25.2317C11.3393 25.2329 11.7107 25.2151 12.0805 25.1783V26.6302C12.0776 26.9146 12.1315 27.1968 12.2389 27.4601C12.3463 27.7233 12.5051 27.9624 12.706 28.1633C12.9069 28.3642 13.1458 28.5228 13.4086 28.6299C13.6715 28.7369 13.9531 28.7902 14.2368 28.7867V28.76ZM17.0639 16.9582V10.729H18.2032V14.743C18.1903 16.1782 17.693 17.5667 16.7923 18.6823C16.9699 18.134 17.0616 17.5613 17.0639 16.9848V16.9582ZM10.4726 1.0676H11.5108C12.6205 1.06978 13.6907 1.48116 14.5174 2.22335C15.3441 2.96555 15.8695 3.9867 15.9937 5.09228H5.98974C6.11391 3.9867 6.6394 2.96555 7.46609 2.22335C8.29279 1.48116 9.36292 1.06978 10.4726 1.0676ZM5.9578 6.15449H15.999V10.1845V16.9848C16.0002 17.8014 15.7817 18.6033 15.3666 19.3059C14.9516 20.0085 14.3553 20.586 13.6405 20.9775C11.9378 21.5965 10.0723 21.5965 8.36961 20.9775C7.64985 20.5895 7.04815 20.0136 6.62825 19.3107C6.20835 18.6078 5.98589 17.8041 5.98442 16.9848L5.9578 6.15449ZM3.75362 10.6756H4.89298V16.9848C4.89529 17.5613 4.98689 18.134 5.16451 18.6823C4.25927 17.561 3.76169 16.1642 3.75362 14.7216V10.6756ZM1.03834 9.89628C1.03834 9.67685 1.12528 9.46641 1.28004 9.31125C1.4348 9.15609 1.64471 9.06892 1.86357 9.06892C2.08244 9.06892 2.29234 9.15609 2.4471 9.31125C2.60186 9.46641 2.68881 9.67685 2.68881 9.89628V10.1418V14.7323C2.72084 16.3288 3.24093 17.8769 4.1788 19.1676C5.11667 20.4582 6.42711 21.429 7.93304 21.949C8.71823 22.3554 9.58897 22.5677 10.4726 22.5682H11.5108C12.3946 22.5683 13.2654 22.356 14.0504 21.949C15.5564 21.429 16.8668 20.4582 17.8047 19.1676C18.7425 17.8769 19.2626 16.3288 19.2947 14.7323V9.90695C19.2947 9.68752 19.3816 9.47708 19.5364 9.32192C19.6911 9.16676 19.901 9.0796 20.1199 9.0796C20.3388 9.0796 20.5487 9.16676 20.7034 9.32192C20.8582 9.47708 20.9451 9.68752 20.9451 9.90695V14.743C20.9451 19.9366 16.4835 24.1641 11.005 24.1641C5.52655 24.1641 1.03834 19.9366 1.03834 14.743V9.89628ZM7.25155 8.74332C7.25155 8.60175 7.30765 8.46598 7.40749 8.36588C7.50734 8.26578 7.64276 8.20954 7.78396 8.20954H9.53559C9.6768 8.20954 9.81221 8.26578 9.91206 8.36588C10.0119 8.46598 10.068 8.60175 10.068 8.74332C10.068 8.88488 10.0119 9.02065 9.91206 9.12075C9.81221 9.22086 9.6768 9.27709 9.53559 9.27709H7.78396C7.64276 9.27709 7.50734 9.22086 7.40749 9.12075C7.30765 9.02065 7.25155 8.88488 7.25155 8.74332ZM7.25155 11.4763C7.25155 11.3347 7.30765 11.1989 7.40749 11.0988C7.50734 10.9987 7.64276 10.9425 7.78396 10.9425H9.53559C9.6768 10.9425 9.81221 10.9987 9.91206 11.0988C10.0119 11.1989 10.068 11.3347 10.068 11.4763C10.068 11.6178 10.0119 11.7536 9.91206 11.8537C9.81221 11.9538 9.6768 12.01 9.53559 12.01H7.78396C7.64276 12.01 7.50734 11.9538 7.40749 11.8537C7.30765 11.7536 7.25155 11.6178 7.25155 11.4763ZM7.25155 14.2145C7.25155 14.073 7.30765 13.9372 7.40749 13.8371C7.50734 13.737 7.64276 13.6808 7.78396 13.6808H9.53559C9.6768 13.6808 9.81221 13.737 9.91206 13.8371C10.0119 13.9372 10.068 14.073 10.068 14.2145C10.068 14.3561 10.0119 14.4919 9.91206 14.592C9.81221 14.6921 9.6768 14.7483 9.53559 14.7483H7.78396C7.64276 14.7483 7.50734 14.6921 7.40749 14.592C7.30765 14.4919 7.25155 14.3561 7.25155 14.2145ZM7.25155 16.9528C7.25155 16.8112 7.30765 16.6755 7.40749 16.5754C7.50734 16.4753 7.64276 16.419 7.78396 16.419H9.53559C9.6768 16.419 9.81221 16.4753 9.91206 16.5754C10.0119 16.6755 10.068 16.8112 10.068 16.9528C10.068 17.0944 10.0119 17.2301 9.91206 17.3302C9.81221 17.4304 9.6768 17.4866 9.53559 17.4866H7.78396C7.64276 17.4866 7.50734 17.4304 7.40749 17.3302C7.30765 17.2301 7.25155 17.0944 7.25155 16.9528ZM12.0432 8.74332C12.0432 8.60175 12.0993 8.46598 12.1992 8.36588C12.299 8.26578 12.4344 8.20954 12.5756 8.20954H14.3219C14.4632 8.20954 14.5986 8.26578 14.6984 8.36588C14.7983 8.46598 14.8544 8.60175 14.8544 8.74332C14.8544 8.88488 14.7983 9.02065 14.6984 9.12075C14.5986 9.22086 14.4632 9.27709 14.3219 9.27709H12.5756C12.4344 9.27709 12.299 9.22086 12.1992 9.12075C12.0993 9.02065 12.0432 8.88488 12.0432 8.74332ZM12.0432 11.4763C12.0432 11.3347 12.0993 11.1989 12.1992 11.0988C12.299 10.9987 12.4344 10.9425 12.5756 10.9425H14.3219C14.4632 10.9425 14.5986 10.9987 14.6984 11.0988C14.7983 11.1989 14.8544 11.3347 14.8544 11.4763C14.8544 11.6178 14.7983 11.7536 14.6984 11.8537C14.5986 11.9538 14.4632 12.01 14.3219 12.01H12.5756C12.4344 12.01 12.299 11.9538 12.1992 11.8537C12.0993 11.7536 12.0432 11.6178 12.0432 11.4763ZM12.0432 14.2145C12.0432 14.073 12.0993 13.9372 12.1992 13.8371C12.299 13.737 12.4344 13.6808 12.5756 13.6808H14.3219C14.4632 13.6808 14.5986 13.737 14.6984 13.8371C14.7983 13.9372 14.8544 14.073 14.8544 14.2145C14.8544 14.3561 14.7983 14.4919 14.6984 14.592C14.5986 14.6921 14.4632 14.7483 14.3219 14.7483H12.5756C12.4344 14.7483 12.299 14.6921 12.1992 14.592C12.0993 14.4919 12.0432 14.3561 12.0432 14.2145ZM12.0432 16.9528C12.0432 16.8112 12.0993 16.6755 12.1992 16.5754C12.299 16.4753 12.4344 16.419 12.5756 16.419H14.3219C14.4632 16.419 14.5986 16.4753 14.6984 16.5754C14.7983 16.6755 14.8544 16.8112 14.8544 16.9528C14.8544 17.0944 14.7983 17.2301 14.6984 17.3302C14.5986 17.4304 14.4632 17.4866 14.3219 17.4866H12.5756C12.4344 17.4866 12.299 17.4304 12.1992 17.3302C12.0993 17.2301 12.0432 17.0944 12.0432 16.9528Z" fill="#F9F9F9"/>
</svg>
