<svg width="19" height="18" viewBox="0 0 19 18" fill="none" xmlns="http://www.w3.org/2000/svg">
<path fill-rule="evenodd" clip-rule="evenodd" d="M16.4642 15.8368L10.745 9.39157L18.0952 2.86946C18.4757 2.53176 18.5442 1.98748 18.2481 1.65377C17.9519 1.32005 17.4034 1.32327 17.0228 1.66097L9.67268 8.18308L3.9535 1.7378C3.65738 1.40409 3.10881 1.40731 2.72825 1.745C2.34768 2.0827 2.27922 2.62698 2.57535 2.9607L8.29453 9.40597L0.944381 15.9281C0.563816 16.2658 0.49536 16.8101 0.79148 17.1438C1.0876 17.4775 1.63616 17.4743 2.01673 17.1366L9.36687 10.6145L15.0861 17.0597C15.3822 17.3935 15.9307 17.3902 16.3113 17.0525C16.6919 16.7148 16.7603 16.1706 16.4642 15.8368Z" fill="#B8B8B8" stroke="#B8B8B8"/>
</svg>
