<svg width="12" height="12" viewBox="0 0 12 12" fill="none" xmlns="http://www.w3.org/2000/svg">
<path fill-rule="evenodd" clip-rule="evenodd" d="M10.9099 5.4707H6.32952V0.890346C6.32952 0.65319 6.13727 0.460938 5.90011 0.460938C5.66295 0.460938 5.4707 0.65319 5.4707 0.890346V5.4707H0.890346C0.65319 5.4707 0.460938 5.66295 0.460938 5.90011C0.460938 6.13727 0.65319 6.32952 0.890346 6.32952H5.4707V10.9099C5.4707 11.147 5.66295 11.3393 5.90011 11.3393C6.13727 11.3393 6.32952 11.147 6.32952 10.9099V6.32952H10.9099C11.147 6.32952 11.3393 6.13727 11.3393 5.90011C11.3393 5.66295 11.147 5.4707 10.9099 5.4707Z" fill="white"/>
</svg>
