<svg width="15" height="15" viewBox="0 0 15 15" fill="none" xmlns="http://www.w3.org/2000/svg">
<path d="M14.4913 7.8923C14.8916 7.48729 15.0718 6.90918 14.9737 6.34569C14.8757 5.7822 14.5107 5.30064 13.9975 5.05909L13.2612 4.71177C13.0354 4.60561 12.8982 4.36521 12.9202 4.11366L12.9913 3.29554C13.0407 2.72513 12.8119 2.1651 12.3785 1.79701C11.9452 1.4293 11.359 1.29891 10.8131 1.44584L10.0285 1.65931C9.78825 1.72354 9.53014 1.62969 9.38721 1.42276L8.92153 0.749652C8.59766 0.280399 8.06584 0 7.50019 0C6.93454 0 6.40273 0.280399 6.07847 0.748882L5.61279 1.42199C5.46986 1.62892 5.21251 1.72278 4.97112 1.65854L4.18689 1.44507C3.64025 1.29776 3.05521 1.42815 2.62185 1.79624C2.18849 2.16433 1.95965 2.72436 2.00906 3.29477L2.08015 4.11328C2.10182 4.36444 1.96497 4.60484 1.73879 4.71177L1.00245 5.05871C0.489264 5.30026 0.12433 5.78144 0.0262533 6.34531C-0.0718228 6.90918 0.108363 7.48729 0.508651 7.89192L1.08304 8.47272C1.25943 8.6508 1.30695 8.92428 1.20165 9.15275L0.858 9.89779C0.618892 10.4167 0.644741 11.0225 0.927946 11.5182C1.21115 12.014 1.71636 12.3398 2.2801 12.3894L3.08942 12.461C3.33765 12.4829 3.54749 12.6614 3.61212 12.9049L3.82195 13.6984C3.96831 14.2515 4.37278 14.6984 4.90459 14.8942C5.43603 15.09 6.02981 15.0111 6.49434 14.6822L7.1592 14.2103C7.36334 14.0665 7.6378 14.0649 7.84194 14.2103L8.50718 14.6822C8.80255 14.8919 9.15152 15 9.50315 15C9.7031 15 9.90382 14.965 10.0965 14.8942C10.628 14.698 11.0328 14.2511 11.1792 13.6984L11.389 12.9049C11.4533 12.661 11.6635 12.4825 11.9117 12.461L12.7203 12.3894C13.284 12.3398 13.7896 12.014 14.0724 11.5182C14.3553 11.0225 14.3815 10.4167 14.142 9.8974L13.7984 9.15275C13.6931 8.92428 13.7406 8.6508 13.917 8.47272L14.4913 7.8923ZM10.6519 6.36992L6.85053 10.2163C6.73915 10.329 6.59318 10.3851 6.4472 10.3851C6.30123 10.3851 6.15525 10.329 6.04387 10.2163L4.14317 8.29309C3.92041 8.0677 3.92041 7.70268 4.14317 7.47729C4.36593 7.25189 4.72669 7.25189 4.94945 7.47729L6.4472 8.99236L9.84527 5.55412C10.068 5.32872 10.4288 5.32872 10.6516 5.55412C10.8743 5.77951 10.8743 6.14453 10.6519 6.36992Z" fill="#FF63BB"/>
</svg>
