<svg width="25" height="25" viewBox="0 0 25 25" fill="none" xmlns="http://www.w3.org/2000/svg">
<path d="M24.777 10.084L21 7.565V0.5C21 0.224 20.776 0 20.5 0H4.5C4.224 0 4 0.224 4 0.5V7.565L0.223 10.084C0.0840001 10.177 0 10.333 0 10.5V24.5C0 24.776 0.224 25 0.5 25H24.5C24.776 25 25 24.776 25 24.5V10.5C25 10.333 24.917 10.177 24.777 10.084ZM8.115 16.178L1 23.293V11.434L8.115 16.178ZM12.222 18.916C12.306 18.972 12.403 19 12.499 19C12.595 19 12.692 18.972 12.776 18.916L16.032 16.745L23.291 24H1.707L8.961 16.742L12.222 18.916ZM16.884 16.178L23.999 11.435V23.294L16.884 16.179V16.178ZM23.598 10.5L20.999 12.233V8.768L23.598 10.501V10.5ZM19.999 1V12.899L12.499 17.899L4.999 12.899V1H19.999ZM4 12.233L1.401 10.5L4 8.767V12.233ZM1 23.949L1.053 24H1V23.949Z" fill="white"/>
</svg>
