<svg width="32" height="32" viewBox="0 0 32 32" fill="none" xmlns="http://www.w3.org/2000/svg">
<path d="M5.33433 18.6667C5.08201 18.6675 4.83463 18.5968 4.62093 18.4627C4.40723 18.3285 4.23597 18.1365 4.12706 17.9089C4.01815 17.6813 3.97605 17.4275 4.00566 17.1769C4.03527 16.9263 4.13537 16.6893 4.29433 16.4933L17.4943 2.89335C17.5933 2.77906 17.7283 2.70182 17.877 2.67432C18.0257 2.64683 18.1793 2.6707 18.3126 2.74202C18.446 2.81334 18.5511 2.92788 18.6108 3.06682C18.6704 3.20577 18.6811 3.36088 18.641 3.50668L16.081 11.5333C16.0055 11.7354 15.9802 11.9527 16.0071 12.1667C16.0341 12.3807 16.1125 12.5849 16.2358 12.7619C16.359 12.9389 16.5234 13.0834 16.7147 13.1829C16.906 13.2824 17.1187 13.334 17.3343 13.3333H26.6677C26.92 13.3325 27.1673 13.4032 27.3811 13.5374C27.5948 13.6715 27.766 13.8635 27.8749 14.0911C27.9838 14.3187 28.0259 14.5726 27.9963 14.8231C27.9667 15.0737 27.8666 15.3107 27.7077 15.5067L14.5077 29.1067C14.4086 29.221 14.2737 29.2982 14.125 29.3257C13.9763 29.3532 13.8227 29.3293 13.6894 29.258C13.556 29.1867 13.4509 29.0722 13.3912 28.9332C13.3315 28.7943 13.3209 28.6392 13.361 28.4933L15.921 20.4667C15.9965 20.2647 16.0218 20.0473 15.9949 19.8333C15.9679 19.6194 15.8894 19.4151 15.7662 19.2381C15.643 19.0611 15.4786 18.9167 15.2873 18.8171C15.096 18.7176 14.8833 18.666 14.6677 18.6667H5.33433Z" fill="white"/>
</svg>
