<svg width="22" height="16" viewBox="0 0 22 16" fill="none" xmlns="http://www.w3.org/2000/svg">
<path d="M21.3245 0.658447C20.6474 1.20331 18.956 2.24217 15.9026 2.24217C14.667 2.24217 14.3782 3.88524 14.3298 5.06159C13.8116 5.61659 13.6586 6.67556 13.6246 7.50334C12.6961 8.49815 12.9401 11.1109 12.9401 11.1109L18.0377 8.92428L19.2626 8.41548C19.8725 8.16207 20.2674 7.58539 20.2674 6.94785V5.81201C20.7036 5.5162 20.9726 5.03237 20.9726 4.50659V3.37075C21.4088 3.07498 21.6778 2.59111 21.6778 2.06533V0.815958C21.6778 0.640602 21.4646 0.545733 21.3245 0.658447Z" fill="#A3E440"/>
<path d="M21.6779 0.816514V2.06605C21.6779 2.59192 21.4089 3.07574 20.9727 3.37123V4.50702C20.9727 5.03288 20.7038 5.51671 20.2676 5.81261V6.94841C20.2676 7.58595 19.8727 8.16291 19.2626 8.41596L18.038 8.92492L17.7875 9.03248C18.2571 8.74153 18.5489 8.23833 18.5489 7.69022V6.55442C18.985 6.25852 19.254 5.7747 19.254 5.24883V4.11304C19.6901 3.81755 19.9591 3.33373 19.9591 2.80786V1.55833C19.9591 1.52948 19.9531 1.50269 19.9428 1.47879C20.5925 1.19319 21.0449 0.884101 21.3247 0.659085C21.4647 0.546536 21.6779 0.641365 21.6779 0.816514Z" fill="#8DC637"/>
<path d="M0.675512 0.658447C1.35266 1.20331 3.04408 2.24217 6.09748 2.24217C7.33309 2.24217 7.62184 3.88524 7.67022 5.06159C8.18843 5.61659 8.34144 6.67556 8.37547 7.50334C9.30394 8.49815 9.05996 11.1109 9.05996 11.1109L3.96236 8.92424L2.7375 8.41544C2.12751 8.16203 1.73267 7.58535 1.73267 6.94781V5.81197C1.29641 5.51615 1.02747 5.03233 1.02747 4.50655V3.37071C0.591207 3.07485 0.322266 2.59103 0.322266 2.06525V0.815958C0.322266 0.640602 0.535477 0.545733 0.675512 0.658447Z" fill="#A3E440"/>
<path d="M9.06005 11.1115L7.28286 10.3491C7.29545 9.53578 7.22266 8.10033 6.61384 7.38712C6.58526 7.35361 6.56984 7.31195 6.56773 7.26872C6.52919 6.47572 6.37841 5.49472 5.90821 4.94467C5.87976 4.91137 5.86472 4.8697 5.86262 4.82672C5.81372 3.82758 5.58689 2.53057 4.76794 2.1731C5.17916 2.2176 5.62173 2.24274 6.09783 2.24274C7.33318 2.24274 7.62193 3.88585 7.67048 5.06204C8.18869 5.61716 8.34166 6.6763 8.3756 7.50383C9.30411 8.49868 9.06005 11.1115 9.06005 11.1115Z" fill="#8DC637"/>
<path d="M11.6296 5.36788L11.0001 5.97176L10.3705 5.36793C9.00954 4.06263 6.803 4.06263 5.4421 5.36793C4.08115 6.67323 4.08115 8.78953 5.4421 10.0948L9.40665 13.8972C9.80927 14.2834 10.1773 14.7013 10.5069 15.1466C10.748 15.4724 11.2522 15.4724 11.4933 15.1466C11.8229 14.7013 12.1909 14.2834 12.5936 13.8972L16.5581 10.0948C17.9191 8.78949 17.9191 6.67318 16.5581 5.36793C15.1971 4.06259 12.9906 4.06259 11.6296 5.36788Z" fill="#FC5A95"/>
<path d="M16.558 10.0947L12.5933 13.8973C12.3922 14.0906 12.1993 14.2913 12.0158 14.4998C11.8323 14.7079 11.6583 14.9239 11.4933 15.1464C11.373 15.3096 11.1865 15.3908 11 15.3908C10.8135 15.3908 10.627 15.3096 10.5067 15.1464C10.3894 14.9882 10.2674 14.8332 10.1406 14.682C10.1918 14.6206 10.2442 14.56 10.297 14.4998C10.4805 14.2913 10.6734 14.0906 10.8745 13.8973L14.8393 10.0947C16.2001 8.7895 16.2001 6.67328 14.8393 5.36769C14.3795 4.92632 13.8226 4.63413 13.2344 4.49153C13.5162 4.42312 13.805 4.38892 14.0937 4.38892C14.9858 4.38892 15.8778 4.7149 16.558 5.36769C17.9188 6.67328 17.9188 8.7895 16.558 10.0947Z" fill="#FB1466"/>
<path d="M11.2991 7.61316L10.9999 7.90011L10.7007 7.61316C10.054 6.99288 9.00542 6.99288 8.3587 7.61316C7.71198 8.23344 7.71198 9.23912 8.3587 9.8594L10.2427 11.6663C10.434 11.8498 10.6089 12.0484 10.7655 12.26C10.8801 12.4149 11.1197 12.4149 11.2343 12.26C11.3909 12.0484 11.5658 11.8498 11.7571 11.6663L13.641 9.8594C14.2877 9.23912 14.2877 8.23344 13.641 7.61316C12.9944 6.99288 11.9458 6.99288 11.2991 7.61316Z" fill="#FC5A95"/>
<path d="M11.2991 7.61316L10.9999 7.90011L10.7007 7.61316C10.054 6.99288 9.00542 6.99288 8.3587 7.61316C7.71198 8.23344 7.71198 9.23912 8.3587 9.8594L10.2427 11.6663C10.434 11.8498 10.6089 12.0484 10.7655 12.26C10.8801 12.4149 11.1197 12.4149 11.2343 12.26C11.3909 12.0484 11.5658 11.8498 11.7571 11.6663L13.641 9.8594C14.2877 9.23912 14.2877 8.23344 13.641 7.61316C12.9944 6.99288 11.9458 6.99288 11.2991 7.61316Z" fill="#FFC7DB"/>
<path d="M21.6902 0.349138C21.4988 0.2635 21.2792 0.291318 21.1173 0.421588C20.7234 0.738588 19.8464 1.32116 18.3998 1.66087C18.227 1.70146 18.1211 1.86878 18.1635 2.03457C18.2058 2.20037 18.3802 2.30187 18.5531 2.26128C19.9418 1.93521 20.8588 1.39451 21.3555 1.03033V2.06515C21.3555 2.57985 21.0373 3.04463 20.5448 3.24917L17.8715 4.3597C17.7082 4.42753 17.6331 4.60952 17.7039 4.76617C17.7565 4.8828 17.8751 4.95249 17.9997 4.95249C18.0425 4.95249 18.0859 4.94429 18.1277 4.92694L20.6503 3.87905V4.50641C20.6503 4.92422 20.4376 5.31787 20.0813 5.55945C20.0791 5.56094 20.0772 5.56271 20.075 5.56423C20.0014 5.61356 19.9223 5.65605 19.8414 5.68968L18.4225 6.26924C18.2587 6.33613 18.1825 6.51767 18.2522 6.67472C18.3044 6.7923 18.4236 6.86277 18.5489 6.86277C18.591 6.86277 18.6338 6.85482 18.675 6.83796L19.945 6.31923V6.94767C19.945 7.46236 19.6268 7.92711 19.1344 8.13168L17.906 8.64196L17.7616 8.70395C18.1125 7.47835 17.788 6.11049 16.7858 5.14931C16.21 4.59704 15.494 4.26001 14.7467 4.13621C14.8252 3.68267 14.946 3.31848 15.1071 3.05193C15.3135 2.71028 15.5662 2.5512 15.9024 2.5512C16.2554 2.5512 16.6088 2.53694 16.9527 2.50888C17.13 2.49437 17.2615 2.34477 17.2464 2.17465C17.2313 2.00461 17.0753 1.87846 16.8979 1.89293C16.5721 1.91955 16.2372 1.93307 15.9024 1.93307C15.2364 1.93307 14.396 2.31263 14.1031 4.08181C13.1251 4.0795 12.1462 4.43524 11.4016 5.1494L11 5.53464L10.5983 5.14935C9.8792 4.45968 8.92315 4.07983 7.90621 4.07987C7.90298 4.07987 7.89976 4.08008 7.89654 4.08008C7.60341 2.31238 6.76337 1.93303 6.09752 1.93303C3.19456 1.93303 1.58421 0.986065 0.882664 0.421629C0.720801 0.291318 0.501316 0.263582 0.309891 0.349138C0.118723 0.434611 0 0.61347 0 0.815902V2.06515C0 2.63647 0.265074 3.16616 0.705203 3.52285V4.50645C0.705203 5.06932 0.966024 5.60252 1.41041 5.96312V6.94771C1.41041 7.70897 1.88104 8.39638 2.60941 8.699L3.83079 9.20636L4.59645 9.53478C4.76141 9.81345 4.96663 10.076 5.21409 10.3133L6.31211 11.3665C6.43796 11.4872 6.64202 11.4872 6.76784 11.3665C6.89369 11.2458 6.89369 11.05 6.76784 10.9294L5.66981 9.87626C4.4367 8.69356 4.4367 6.76918 5.66981 5.58649C6.26716 5.01356 7.06136 4.69805 7.90612 4.69805C8.75093 4.69805 9.54512 5.01356 10.1425 5.58649L10.7721 6.19036C10.8325 6.24835 10.9144 6.2809 10.9999 6.2809C11.0854 6.2809 11.1674 6.24835 11.2278 6.19036L11.8574 5.58649C12.4547 5.01356 13.2489 4.69805 14.0937 4.69805C14.9385 4.69805 15.7327 5.01356 16.33 5.58649C17.5631 6.76918 17.5631 8.69356 16.33 9.87626L12.3654 13.6787C11.9512 14.076 11.5693 14.5097 11.2303 14.9678C11.1766 15.0403 11.0926 15.0819 10.9999 15.0819C10.9071 15.0819 10.8231 15.0403 10.7694 14.9678C10.4304 14.5097 10.0485 14.076 9.63432 13.6787L8.02007 12.1305C8.01204 12.0736 7.98742 12.0182 7.94565 11.9714C7.82994 11.8416 7.62652 11.8265 7.49126 11.9374L7.44111 11.9786C7.37292 12.0346 7.33219 12.1154 7.32871 12.2014C7.32523 12.2875 7.35939 12.371 7.42285 12.4319L9.17855 14.1158C9.56725 14.4886 9.9257 14.8956 10.2438 15.3256C10.4174 15.5601 10.7 15.7 10.9999 15.7C11.2997 15.7 11.5824 15.5601 11.7559 15.3256C12.074 14.8957 12.4325 14.4887 12.8212 14.1158L16.7858 10.3133C17.0332 10.076 17.2385 9.81349 17.4034 9.53478L18.1656 9.2078L19.3905 8.699C20.1189 8.39643 20.5895 7.70901 20.5895 6.94771V5.96312C21.0339 5.60252 21.2947 5.06932 21.2947 4.50645V3.52285C21.7349 3.16621 22 2.63647 22 2.06515V0.815902C22 0.61347 21.8813 0.434611 21.6902 0.349138ZM5.21413 5.14935C4.21197 6.11054 3.88743 7.47843 4.23844 8.70399L4.0905 8.64052L2.86559 8.13172C2.37316 7.92715 2.05494 7.4624 2.05494 6.94771V6.31927L3.32496 6.838C3.36613 6.85482 3.40897 6.86281 3.45108 6.86281C3.57638 6.86281 3.69553 6.7923 3.74773 6.67477C3.81747 6.51771 3.74125 6.33617 3.57749 6.26928L2.16038 5.69051C2.07767 5.65614 1.99856 5.61361 1.92491 5.56432C1.92277 5.56279 1.92087 5.56102 1.91873 5.55954C1.56243 5.31795 1.34973 4.9243 1.34973 4.50649V3.87913L3.87234 4.92702C3.91407 4.94433 3.95751 4.95257 4.00026 4.95257C4.12483 4.95257 4.24351 4.88288 4.29614 4.76625C4.36687 4.6096 4.2918 4.42761 4.12852 4.35978L1.45518 3.24925C0.962715 3.04463 0.644531 2.57989 0.644531 2.06515V1.03082C1.48934 1.65394 3.20818 2.5512 6.09748 2.5512C6.68495 2.5512 7.07321 3.08354 7.25317 4.13415C6.48476 4.26087 5.77676 4.60973 5.21413 5.14935Z" fill="black"/>
<path d="M10.0149 11.8849C10.1929 12.0556 10.3571 12.2421 10.5028 12.4389C10.6169 12.5932 10.8028 12.6852 11 12.6852C11.1972 12.6852 11.383 12.5932 11.4972 12.439C11.6429 12.2421 11.8071 12.0557 11.9851 11.8849L13.869 10.078C14.2427 9.71961 14.4485 9.24312 14.4485 8.7363C14.4485 8.22947 14.2427 7.75298 13.869 7.39461C13.4954 7.03623 12.9986 6.83887 12.4702 6.83887C11.9417 6.83887 11.4449 7.03623 11.0713 7.39461L10.9999 7.46302L10.9286 7.39461C10.555 7.03623 10.0581 6.83887 9.52972 6.83887C9.00129 6.83887 8.50448 7.03623 8.13083 7.39461C7.75717 7.75298 7.55139 8.22947 7.55139 8.7363C7.55139 9.24312 7.75717 9.71961 8.13083 10.078L10.0149 11.8849ZM8.58668 7.83166C8.84669 7.58229 9.18824 7.45758 9.5298 7.45758C9.87136 7.45758 10.2129 7.58229 10.4729 7.83166L10.7721 8.11861C10.898 8.23932 11.102 8.23932 11.2278 8.11861L11.527 7.83166C12.0471 7.33287 12.8933 7.33287 13.4133 7.83166C13.9333 8.33044 13.9333 9.14198 13.4133 9.64077L11.5293 11.4477C11.3373 11.6319 11.1594 11.832 11 12.0431C10.8406 11.832 10.6626 11.6319 10.4706 11.4477L8.58668 9.64077C8.06667 9.14202 8.06667 8.33044 8.58668 7.83166Z" fill="black"/>
</svg>
