<svg width="15" height="15" viewBox="0 0 15 15" fill="none" xmlns="http://www.w3.org/2000/svg">
<path d="M15 7.5C15 6.45675 14.421 5.51662 13.533 5.0325C13.869 4.038 13.6271 2.89987 12.8636 2.13637C12.1005 1.37287 10.9624 1.13175 9.9675 1.467C9.48337 0.579 8.54325 0 7.5 0C6.45675 0 5.51662 0.579 5.0325 1.467C4.03725 1.13063 2.8995 1.37287 2.13637 2.13637C1.37287 2.89987 1.13063 4.038 1.467 5.0325C0.579 5.51662 0 6.45675 0 7.5C0 8.54325 0.579 9.48337 1.467 9.9675C1.131 10.962 1.37287 12.1001 2.13637 12.8636C2.89987 13.6271 4.03875 13.8694 5.0325 13.533C5.51662 14.421 6.45675 15 7.5 15C8.54325 15 9.48337 14.421 9.9675 13.533C10.9624 13.8694 12.1001 13.6268 12.8636 12.8636C13.6271 12.1001 13.8694 10.962 13.533 9.9675C14.421 9.48337 15 8.54325 15 7.5ZM7.5 12C7.08563 12 6.75 11.6644 6.75 11.25C6.75 10.8356 7.08563 10.5 7.5 10.5C7.91437 10.5 8.25 10.8356 8.25 11.25C8.25 11.6644 7.91437 12 7.5 12ZM8.62125 7.86637C8.24925 8.15625 8.0625 8.30175 8.0625 8.8125C8.0625 9.12337 7.81087 9.375 7.5 9.375C7.18913 9.375 6.9375 9.12337 6.9375 8.8125C6.9375 7.752 7.51087 7.30538 7.92975 6.97913C8.33325 6.6645 8.625 6.43725 8.625 5.625C8.625 5.00475 8.12025 4.5 7.5 4.5C6.87975 4.5 6.375 5.00475 6.375 5.625V5.8125C6.375 6.12337 6.12337 6.375 5.8125 6.375C5.50163 6.375 5.25 6.12337 5.25 5.8125V5.625C5.25 4.38412 6.25912 3.375 7.5 3.375C8.74088 3.375 9.75 4.38412 9.75 5.625C9.75 6.98663 9.0975 7.49512 8.62125 7.86637Z" fill="#FF6366"/>
</svg>
